HIERARCHY
ROOT Hips
{
  OFFSET 13.6774 106.653 -34.4427
  CHANNELS 6 Xposition Yposition Zposition Zrotation Xrotation Yrotation
  JOINT ToSpine
  {
    OFFSET -2.69724 7.43032 -0.144315
    CHANNELS 3 Zrotation Xrotation Yrotation
    JOINT Spine
    {
      OFFSET -0.0310711 10.7595 1.96963
      CHANNELS 3 Zrotation Xrotation Yrotation
      JOINT Spine1
      {
        OFFSET 19.9056 3.91189 0.764692
        CHANNELS 3 Zrotation Xrotation Yrotation
        JOINT Neck
        {
          OFFSET 25.9749 7.03908 -0.130764
          CHANNELS 3 Zrotation Xrotation Yrotation
          JOINT Head
          {
            OFFSET 9.52751 0.295786 -0.907742
            CHANNELS 3 Zrotation Xrotation Yrotation
            End Site
            {
              OFFSET 16.4037 0.713936 2.7358
            }
          }
        }
        JOINT LeftShoulder
        {
          OFFSET 17.7449 4.33886 11.7777
          CHANNELS 3 Zrotation Xrotation Yrotation
          JOINT LeftArm
          {
            OFFSET 0.911315 1.27913 9.80584
            CHANNELS 3 Zrotation Xrotation Yrotation
            JOINT LeftForeArm
            {
              OFFSET 28.6126 1.18197 -3.53199
              CHANNELS 3 Zrotation Xrotation Yrotation
              JOINT LeftHand
              {
                OFFSET 27.5088 0.0218783 0.327423
                CHANNELS 3 Zrotation Xrotation Yrotation
                End Site
                {
                  OFFSET 18.6038 -0.000155887 0.382096
                }
              }
            }
          }
        }
        JOINT RightShoulder
        {
          OFFSET 17.1009 2.89543 -12.2328
          CHANNELS 3 Zrotation Xrotation Yrotation
          JOINT RightArm
          {
            OFFSET 1.4228 0.178766 -10.211
            CHANNELS 3 Zrotation Xrotation Yrotation
            JOINT RightForeArm
            {
              OFFSET 28.733 1.87905 2.64907
              CHANNELS 3 Zrotation Xrotation Yrotation
              JOINT RightHand
              {
                OFFSET 27.4588 0.290562 -0.101845
                CHANNELS 3 Zrotation Xrotation Yrotation
                End Site
                {
                  OFFSET 17.8396 -0.255518 -0.000602873
                }
              }
            }
          }
        }
      }
    }
  }
  JOINT LeftUpLeg
  {
    OFFSET -5.61296 -2.22332 -10.2353
    CHANNELS 3 Zrotation Xrotation Yrotation
    JOINT LeftLeg
    {
      OFFSET 2.56703 -44.7417 -7.93097
      CHANNELS 3 Zrotation Xrotation Yrotation
      JOINT LeftFoot
      {
        OFFSET 3.16933 -46.5642 -3.96578
        CHANNELS 3 Zrotation Xrotation Yrotation
        JOINT LeftToeBase
        {
          OFFSET 0.346054 -6.02161 12.8035
          CHANNELS 3 Zrotation Xrotation Yrotation
          End Site
          {
            OFFSET 0.134235 -1.35082 5.13018
          }
        }
      }
    }
  }
  JOINT RightUpLeg
  {
    OFFSET -5.7928 -1.72406 10.6446
    CHANNELS 3 Zrotation Xrotation Yrotation
    JOINT RightLeg
    {
      OFFSET -2.57161 -44.7178 -7.85259
      CHANNELS 3 Zrotation Xrotation Yrotation
      JOINT RightFoot
      {
        OFFSET -3.10148 -46.5936 -4.03391
        CHANNELS 3 Zrotation Xrotation Yrotation
        JOINT RightToeBase
        {
          OFFSET -0.0828122 -6.13587 12.8035
          CHANNELS 3 Zrotation Xrotation Yrotation
          End Site
          {
            OFFSET -0.131328 -1.35082 5.13018
          }
        }
      }
    }
  }
}
MOTION
Frames: 14
Frame Time: 0.03333333333333333
0.0000 93.1000 0.0000 38.8536 -44.0882 -38.3297 -70.9845 0.0976 88.0117 133.8987 72.6382 -47.9471 -8.3450 27.5862 1.0138 -166.2284 22.1701 178.3058 -160.5606 61.9688 -170.4196 0.1178 -14.7930 -33.0997 -59.0973 59.5622 -69.8992 3.6087 2.7106 -47.9318 0.1630 0.0269 -0.1307 -1.8073 6.8537 34.7881 -80.1641 -36.4038 106.0389 19.9661 -2.3078 83.8145 0.1277 -0.1383 0.1347 -4.5151 3.8798 94.0855 -3.6191 43.2886 -7.7237 -2.6729 -4.8514 -1.0494 10.2411 -20.6520 16.2038 -63.6495 0.3877 79.0592 -0.3869 28.1596 21.1752 -5.6462 -11.8893 1.0195 2.7394 -23.2577 -0.7479 
0.0000 93.1000 0.0000 37.8233 -44.8002 -41.1248 -70.9826 0.0702 88.0133 138.0488 72.2007 -55.9500 -9.2728 28.9670 -0.2141 -166.2360 22.3522 176.0397 -158.3963 62.0396 -171.4285 -0.0637 -14.4892 -32.0020 -59.2455 61.2530 -66.7765 4.1075 2.4280 -51.1137 0.0138 0.0920 -0.1088 -1.7791 7.0209 32.5307 -84.6872 -38.4549 104.2331 22.3781 -0.7330 89.7013 0.4058 -0.1967 0.1070 -0.9384 5.2716 98.1224 -4.3558 50.1982 -8.0027 -2.4775 -4.3075 -0.8830 9.3868 -21.2956 14.7256 -65.8335 -2.0991 79.8624 -2.0167 31.7295 23.9951 -4.0198 -9.2122 0.6420 3.3833 -28.5132 4.4406 
0.0000 93.1000 0.0000 35.1800 -44.3435 -43.2864 -70.9798 -0.2688 88.0129 134.8519 72.6867 -55.0613 -8.5779 29.7714 -0.9268 -166.4061 22.6504 173.9877 -159.4138 62.0993 -170.5120 0.2219 -14.1439 -32.0519 -64.6283 61.2319 -61.8049 4.2977 3.0957 -52.8077 -0.1628 -0.2370 0.1648 -1.6238 6.8083 33.1668 -86.0221 -38.9540 100.9549 23.4661 0.4550 92.9389 0.8629 -0.0240 0.4754 0.9940 6.6353 100.3798 -5.7648 59.1015 -4.5829 0.7024 -8.3894 -1.4299 5.5396 -14.8570 12.1008 -66.0583 -1.0318 87.4615 -0.9226 33.7087 12.9036 -2.4133 2.5907 -0.1142 4.3725 -35.1400 13.9194 
0.0000 93.1000 0.0000 33.8895 -42.0937 -43.9179 -70.9852 -0.1255 88.0118 130.9083 72.9255 -53.5425 -7.8601 28.7823 -0.6766 -167.3568 22.0759 172.0380 -160.0497 61.9069 -169.5881 -0.1473 -14.1023 -32.1698 -68.9477 57.9961 -59.8650 4.4785 3.0881 -53.3161 -0.0040 0.0047 0.0231 -1.7801 6.5505 34.9033 -84.9149 -39.2081 94.7225 20.7218 0.9963 93.9253 0.5659 -0.3160 0.4046 1.1958 5.9287 101.8506 -7.5921 64.3619 -3.2434 3.0888 -13.0562 -1.8094 2.8724 -9.8518 12.4980 -62.4200 -0.3261 93.5291 2.1998 40.9146 5.8546 2.8733 16.6414 -1.4494 3.9628 -32.7742 9.5474 
0.0000 93.1000 0.0000 34.0789 -40.2151 -41.8496 -70.9971 -0.1744 88.0102 127.9841 72.1696 -52.4312 -6.6532 26.8941 0.0225 -167.2748 21.5990 172.1946 -161.2334 61.8364 -166.4962 -0.6420 -14.6495 -32.9542 -75.9324 53.9292 -57.8357 4.6439 3.0492 -55.2813 0.1669 0.2004 0.1083 -2.0512 6.6333 38.0348 -81.0527 -38.2266 89.9329 18.1212 -0.4070 90.6259 0.0529 -0.2789 0.1573 -1.8659 3.0611 101.3300 -10.6101 69.3357 -1.1568 4.4797 -16.7711 -1.8837 2.3183 -8.6377 14.0889 -52.7692 2.0487 95.5848 4.8041 60.2194 3.0405 7.1358 22.2710 -3.1356 4.5988 -14.0024 -22.3406 
0.0000 93.1000 0.0000 36.8928 -37.7408 -40.5968 -71.0035 -0.4050 88.0126 122.8828 70.5082 -49.8102 -5.5315 24.9595 -0.6765 -167.4629 21.0448 172.2493 -160.4328 61.3402 -165.3549 -1.2805 -15.8061 -34.2168 -81.5157 50.0492 -57.9458 3.7866 2.3806 -57.7785 -0.0920 -0.0061 0.0725 -2.6509 6.4848 41.3471 -75.7754 -38.8955 85.8647 15.7973 -2.8072 81.8909 0.0280 -0.0570 0.0203 -6.3060 -1.0373 101.2121 -13.0364 72.4063 -2.0234 4.1068 -19.9256 -1.7170 4.0743 -12.3318 18.6938 -39.7116 3.0708 93.9225 18.3941 80.9081 -22.7178 2.7225 18.1763 -2.4966 0.6736 -4.1820 -9.4508 
0.0000 93.1000 0.0000 38.0121 -35.9120 -39.7245 -71.0067 -0.1607 88.0097 119.0105 69.5837 -47.1920 -4.4211 23.4322 -0.3049 -168.3474 21.0453 172.2991 -160.6302 61.3764 -165.0187 -1.2033 -16.5800 -34.7824 -84.0868 44.1522 -64.8468 6.2710 3.2280 -60.2800 -0.1085 -0.0669 0.3395 -2.7527 5.7520 43.3820 -70.9133 -40.0849 82.0564 12.8860 -4.8357 70.7020 0.2289 0.2001 -0.1597 -11.9803 -3.9588 100.9115 -13.0657 71.0423 -5.1659 4.5277 -23.2087 -2.0410 5.4072 -16.2353 21.4806 -24.8986 4.2490 93.7935 153.9169 80.0770 -156.1307 -1.6848 19.4063 -1.8490 2.8187 -10.5218 -12.3334 
0.0000 93.1000 0.0000 38.8604 -34.9989 -37.8032 -71.0045 -0.3739 88.0075 118.8651 67.6446 -45.3790 -5.2984 21.3827 0.3007 -167.4125 20.0875 171.3552 -160.4507 59.9944 -165.2983 -1.1620 -16.2669 -34.0758 -87.2073 41.0297 -70.8361 7.6590 2.8363 -65.4621 -0.0215 -0.2236 0.2496 -2.9925 5.8197 45.4735 -65.8949 -42.2731 75.8546 8.0756 -4.8869 60.9057 0.0503 0.1998 -0.3106 -21.0423 -5.1516 99.9945 -10.9272 68.1265 -9.1687 3.3346 -23.7879 -2.1587 7.7774 -18.6592 21.5674 -11.3253 4.5278 92.2175 165.9659 71.4769 -171.8304 -6.7021 20.1784 -0.6760 1.0958 -14.6614 -5.4845 
0.0000 93.1000 0.0000 41.8798 -33.1774 -31.9591 -70.9992 -0.2514 88.0078 119.9714 65.0496 -43.5156 -5.9871 19.1889 1.3104 -165.4294 19.2821 172.3787 -159.7500 58.6476 -167.2089 -0.3770 -15.6264 -32.8648 -94.7177 42.1415 -68.7765 11.3390 2.5278 -76.2608 -0.0133 -0.2391 0.0869 -2.8721 6.1276 47.3362 -59.9059 -44.9918 71.0395 4.1126 -3.9006 54.7966 -0.2702 0.2151 -0.1037 -31.7391 -5.5946 96.9841 -8.9660 62.1737 -13.8318 2.4277 -24.3129 -2.5610 8.7792 -18.8754 19.9558 -0.6354 4.2865 88.1162 167.0913 69.0719 -174.0032 -11.5763 17.5529 0.5063 1.5005 -17.3904 -3.6491 
0.0000 93.1000 0.0000 41.9846 -32.2710 -27.9537 -70.9927 0.2974 88.0075 117.9440 63.3144 -36.1093 -5.0461 16.7706 1.5278 -164.4379 17.8118 172.6298 -158.3859 57.1791 -169.1930 0.1805 -14.7019 -31.0876 -97.0278 43.9339 -67.7395 12.2166 0.6342 -87.0054 0.3289 0.1983 -0.2216 -2.7314 6.0568 49.0483 -56.8210 -46.3629 63.9589 2.8735 -3.0979 53.6461 -0.4568 -0.1534 -0.1409 -43.1117 -3.0125 93.2478 -5.9940 54.4121 -15.1293 1.1932 -20.3770 -2.5411 8.7985 -18.5478 12.7235 6.0445 4.8847 83.7800 163.0816 75.3576 -167.2373 -10.4412 15.3896 0.9341 2.4649 -18.4723 -11.1709 
0.0000 93.1000 0.0000 42.0088 -34.8030 -24.9253 -70.9880 0.4558 88.0076 116.7975 63.0720 -29.6255 -3.9035 15.3945 1.9168 -160.4601 16.0779 172.3241 -154.5435 55.9530 -172.1190 0.5689 -13.8836 -30.2286 -96.8721 44.0457 -67.7166 13.9865 -1.8036 -95.5223 0.2008 0.2582 -0.2985 -2.6258 6.0086 49.8950 -58.0070 -48.2712 55.8183 2.1158 -3.2326 52.9410 -0.2742 -0.1234 -0.1431 -54.1400 1.3537 92.7221 -4.2790 43.9887 -15.4820 -2.1103 -5.0945 -1.1731 10.3392 -24.5683 4.1262 8.1807 6.6714 81.2761 113.1199 85.8272 -118.3225 -9.5480 15.2588 0.7283 2.0142 -20.4059 -6.8654 
0.0000 93.1000 0.0000 45.0046 -34.2591 -23.0115 -70.9902 0.3430 88.0086 113.8819 62.7070 -26.5661 -3.9615 14.0679 2.4717 -157.4210 15.2366 172.4501 -151.4309 54.8772 -174.1221 0.0000 -13.8949 -29.7952 -95.0033 45.1854 -67.7667 14.0178 -4.5780 -104.4890 -0.0490 0.3472 -0.5921 -2.8492 6.3627 48.9078 -62.8882 -48.7719 47.9807 1.8829 -2.7567 53.8223 -0.4785 -0.2207 -0.2529 -62.9643 1.1495 88.2418 -3.6721 37.4458 -15.7758 -7.6285 10.2001 1.3704 6.7985 -15.2999 -0.5382 5.2786 6.3130 81.1198 9.0794 75.3205 -12.8191 -6.6144 13.3116 0.1082 -0.1199 -10.6054 -5.4939 
0.0000 93.1000 0.0000 43.9263 -33.0842 -24.7658 -71.0007 0.1854 88.0116 104.8967 63.3138 -19.1374 -2.3253 13.8474 3.0904 -155.4377 14.8880 172.3083 -150.3969 54.1279 -174.1066 -0.1364 -13.8220 -29.1092 -92.9666 45.9046 -66.7933 15.3212 -6.8629 -110.2003 -0.1449 0.2022 -0.4326 -2.8208 6.1521 48.1399 -67.0457 -48.2865 43.9553 2.8464 -2.8519 55.5313 -0.1174 -0.0582 -0.3223 -65.0122 -1.8638 86.0553 -3.7027 41.1938 -13.9133 -7.3453 13.1152 1.9220 1.7341 -5.3420 4.0191 2.1598 7.0472 82.7921 5.0566 58.3258 4.1968 -4.5948 13.9255 -0.4813 2.4856 -15.7168 -21.3855 
0.0000 93.1000 0.0000 43.0327 -34.0413 -29.2108 -71.0021 0.1667 88.0155 99.7913 63.9296 -16.2484 -1.7894 14.4019 3.2298 -155.3788 15.2839 173.3049 -150.0671 54.0724 -174.3808 -0.3559 -13.8300 -28.2511 -88.9988 48.0460 -68.7598 16.8424 -6.6127 -109.4870 -0.2916 0.0742 -0.2528 -3.0121 6.1785 47.1883 -70.1318 -46.1056 43.8747 2.4354 -2.3632 56.8078 0.1267 0.0663 -0.3329 -62.2685 -3.6537 88.9780 -4.9537 53.4498 -6.0460 -6.5882 7.5299 1.5942 -0.1929 -2.0419 7.0823 -3.0644 7.2054 83.9372 3.0782 44.2020 7.5307 -2.8931 11.6028 -0.7645 2.3495 -20.9205 -21.4148 
